<svg xmlns="http://www.w3.org/2000/svg" width="60.148" height="63"><defs><filter id="a" x="0" y="0" width="60.148" height="63" filterUnits="userSpaceOnUse"><feOffset dy="3"/><feGaussianBlur stdDeviation="3" result="blur"/><feFlood flood-opacity=".161"/><feComposite operator="in" in2="blur"/><feComposite in="SourceGraphic"/></filter></defs><g transform="translate(0 .003)" filter="url(#a)" data-name="グループ 8"><path data-name="前面オブジェクトで型抜き 1" d="M31.969 51a23.236 23.236 0 01-8.941-1.768 22.925 22.925 0 01-7.3-4.822 22.405 22.405 0 01-4.928-7.152 22.141 22.141 0 01.838-19.247 22.842 22.842 0 017.042-7.865v36.6h16.855a25.018 25.018 0 008.906-1.533 18.276 18.276 0 006.706-4.33A23.061 23.061 0 0131.969 51zm3.141-11.3h-7.844v-23h7.844a12.673 12.673 0 018.858 3.087A11.152 11.152 0 0147.3 28.2a11.152 11.152 0 01-3.332 8.414A12.673 12.673 0 0135.11 39.7zm14.551-25.548c-3.627-2.946-8.512-4.5-14.126-4.5H19.424a23.321 23.321 0 0130.239 4.5z" fill="#fff"/></g></svg>